<svg width="40" height="40" viewBox="0 0 40 40" fill="none" xmlns="http://www.w3.org/2000/svg">
<path d="M13.4856 0.981251C11.6548 1.51562 10.1528 1.9625 10.1429 1.97187C10.1331 1.98125 10.5505 2.03437 11.0698 2.09063C11.8915 2.17812 12.1741 2.21875 11.9868 2.21875C11.9572 2.21875 11.9309 2.25 11.9243 2.2875C11.9178 2.33125 11.8948 2.35625 11.8652 2.35C11.8389 2.34375 11.5891 2.28437 11.313 2.21563C11.0402 2.15 10.7082 2.08437 10.5801 2.075L10.3434 2.05312L10.3697 2.23438C10.488 3.15625 10.958 3.75625 11.7436 3.9875L11.9309 4.04375V5.19062V6.3375L11.6844 6.81562C11.5365 7.10938 11.3722 7.49375 11.2703 7.79688C11.0764 8.37188 11.0698 8.38438 10.9613 8.52813C10.8627 8.65625 10.82 8.79688 10.7806 9.13438C10.7313 9.52188 10.7378 9.84375 10.7937 9.84375C10.8266 9.84375 10.8397 9.96875 10.8561 10.4281C10.8989 11.6625 11.1651 12.6719 11.7337 13.75L11.9309 14.125V14.7031C11.9309 15.0219 11.9243 15.2813 11.9178 15.2813C11.9112 15.2813 11.8027 15.2344 11.6811 15.1813C11.4806 15.0906 11.4215 15.0781 11.1717 15.0781C10.912 15.0781 10.8726 15.0875 10.6359 15.2C9.69921 15.6406 9.00241 17.0594 8.72303 19.1094C8.65401 19.6188 8.62772 20.7281 8.67373 21.1406C8.83807 22.5688 9.40011 24.1844 10.3763 26.0438C10.728 26.7188 11.1355 27.4 11.2177 27.4531C11.3722 27.5563 11.622 27.4813 11.7107 27.3063C11.806 27.1156 11.8323 26.9281 11.8323 26.3875C11.8323 25.7688 11.8685 25.5969 12.0361 25.4469C12.1413 25.3531 12.2892 25.2656 12.3089 25.2875C12.3122 25.2938 12.4338 25.4438 12.5751 25.625C12.8907 26.025 13.64 26.75 14.0838 27.0813C14.2645 27.2188 14.5735 27.425 14.7674 27.5469C15.1224 27.7656 15.1224 27.7656 15.0139 27.7844C14.6787 27.8438 14.6261 27.9188 14.6261 28.3188C14.6261 28.6094 14.6228 28.625 14.5538 28.6375C14.511 28.6469 12.8381 28.7375 10.8299 28.8438C4.82164 29.1594 5.15689 29.1375 5.08458 29.225C4.98269 29.3406 4.81178 29.6844 4.71317 29.9688C4.62443 30.2188 4.62114 30.2625 4.62114 30.7813C4.62114 31.2875 4.62772 31.35 4.70989 31.6031C4.75919 31.7531 4.85122 31.9719 4.91038 32.0906L5.02542 32.3031L5.52172 32.3188C5.79123 32.3281 6.02131 32.3406 6.03117 32.3469C6.03774 32.3563 6.00159 32.4688 5.949 32.5969C5.7255 33.15 5.69263 33.8 5.86026 34.3438C5.90627 34.4906 5.93914 34.6125 5.93585 34.6188C5.92928 34.6219 4.83807 34.7031 3.5135 34.7969C2.18565 34.8906 0.989263 34.9781 0.847931 34.9875L0.598137 35.0094L0.450232 35.3094C-0.115092 36.4625 -0.14796 37.8188 0.364776 38.9906C0.420651 39.1156 0.479813 39.225 0.49296 39.2344C0.519254 39.25 1.8734 39.2906 8.97283 39.4844C14.2678 39.6281 17.5842 39.7188 19.8192 39.7813C21.0386 39.8156 22.9022 39.8625 23.9605 39.8906C25.0188 39.9156 26.018 39.95 26.1791 39.9688C26.4387 39.9938 26.6458 39.9844 27.8225 39.8719C30.2448 39.6469 38.8923 38.8094 38.9054 38.8C38.9087 38.7969 38.8923 38.6813 38.866 38.5469C38.7937 38.1656 38.8036 37.325 38.8824 36.8C38.9515 36.3563 39.1125 35.6531 39.2604 35.1563C39.359 34.8188 39.359 34.8156 39.2703 34.8188C39.2276 34.8219 39.0534 34.8219 38.8792 34.8188L38.5603 34.8125L38.5242 34.6156C38.4782 34.3625 38.4782 33.8438 38.5242 33.5531C38.5669 33.275 38.6918 32.7875 38.8068 32.4469C38.9054 32.1656 38.912 32.1563 39.2013 32.1563C39.4708 32.1563 39.4708 32.1563 39.4149 31.9125C39.382 31.7656 39.3755 31.5625 39.3853 31.2188C39.3985 30.6844 39.4642 30.3531 39.7008 29.6094C39.7732 29.3875 39.8257 29.2 39.8225 29.1938C39.8126 29.1844 38.3927 29.1438 32.5225 28.9844C30.9317 28.9406 28.6244 28.8781 27.3952 28.8438C26.1692 28.8094 25.0714 28.7813 24.9597 28.7813H24.7592L24.7756 28.4719C24.7953 28.0438 24.7723 27.95 24.6277 27.8656C24.5193 27.8063 24.516 27.7969 24.5686 27.7688C24.8085 27.6344 25.41 27.2344 25.6696 27.0375C26.2218 26.6188 26.8824 25.95 27.3294 25.3594C27.3952 25.275 27.3985 25.275 27.4938 25.3219C27.6285 25.3875 27.7271 25.4906 27.7962 25.6406C27.8422 25.7438 27.852 25.8688 27.8553 26.3594C27.8619 26.8188 27.875 26.9938 27.9178 27.1375C28.0131 27.4438 28.1939 27.5594 28.4437 27.4719C28.6737 27.3875 29.857 25.0938 30.3467 23.7813C30.9317 22.2188 31.1224 21.0875 31.0271 19.7656C30.866 17.4563 30.1035 15.6844 29.0616 15.1938C28.8381 15.0906 28.7888 15.0781 28.5488 15.0781C28.253 15.0781 28.0492 15.1344 27.8126 15.2844C27.7337 15.3344 27.6614 15.375 27.6483 15.3719C27.6351 15.3719 27.5497 15.25 27.4543 15.1C27.3031 14.8531 27.29 14.8219 27.3327 14.7656C28.0361 13.8031 28.5357 12.65 28.7395 11.5C28.8151 11.0844 28.8677 10.325 28.8446 10.0063L28.8249 9.71875H28.9071C28.9827 9.71875 28.9893 9.70625 28.9893 9.58438C28.9893 9.35313 28.9235 8.90625 28.8742 8.79375C28.8479 8.73438 28.7888 8.65313 28.7428 8.6125C28.6803 8.55938 28.6343 8.45625 28.5751 8.25C28.184 6.85625 27.4313 5.6375 26.3171 4.58437L25.8931 4.1875H26.0213C26.2547 4.1875 26.9909 4.09375 27.2571 4.03125C27.875 3.88438 28.2826 3.59375 28.5258 3.11875C28.6606 2.85938 28.7723 2.5125 28.8118 2.21563L28.8348 2.0625H28.6967C28.493 2.0625 28.0262 2.16563 26.9843 2.44375C25.0912 2.94688 24.8512 3.00938 24.1183 3.1875L23.3689 3.36875V2.98438V2.59687L23.7239 2.49375C23.9178 2.43438 24.9893 2.12188 26.1035 1.79688C27.221 1.46875 28.1347 1.19688 28.1347 1.18438C28.1347 1.175 27.8356 1.1375 27.4708 1.1C27.1027 1.06562 25.5184 0.900002 23.9441 0.737499C22.373 0.571877 20.1347 0.340626 18.9712 0.21875C17.811 0.0999985 16.8479 0 16.8348 0.00312424C16.8216 0.00312424 15.3163 0.443748 13.4856 0.981251ZM14.2087 2.425L15.645 2.57812V2.94688V3.31875L15.5332 3.3C15.3722 3.27187 13.9194 2.90313 13.1963 2.70937L12.5718 2.54063L12.562 2.39062L12.5521 2.24062L12.6606 2.25625C12.7197 2.26562 13.4165 2.34375 14.2087 2.425ZM13.7321 4.24688C13.7386 4.25 13.6105 4.36875 13.4494 4.51562C13.1996 4.74062 12.9104 5.04063 12.6244 5.375L12.5587 5.45312L12.5554 4.79688V4.14062L13.1405 4.19062C13.4593 4.22187 13.7255 4.24375 13.7321 4.24688ZM25.2851 4.27187C25.2621 4.27813 25.216 4.27813 25.1865 4.27187C25.1536 4.2625 25.1733 4.25625 25.2259 4.25625C25.2818 4.25625 25.3048 4.2625 25.2851 4.27187ZM24.677 4.3625C24.4469 4.40313 24.1216 4.47813 23.9539 4.52813C23.576 4.64062 23.4182 4.67188 23.4478 4.63125C23.4938 4.55938 24.7197 4.2875 24.9958 4.2875C25.0517 4.2875 24.9071 4.31875 24.677 4.3625Z" fill="#3AAFA9"/>
</svg>
