<?xml version="1.0" standalone="no"?>
<!DOCTYPE svg PUBLIC "-//W3C//DTD SVG 20010904//EN"
 "http://www.w3.org/TR/2001/REC-SVG-20010904/DTD/svg10.dtd">
<svg version="1.0" xmlns="http://www.w3.org/2000/svg"
 width="1217.000000pt" height="1280.000000pt" viewBox="0 0 1217.000000 1280.000000"
 preserveAspectRatio="xMidYMid meet">
<metadata>
Created by potrace 1.15, written by Peter Selinger 2001-2017
</metadata>
<g transform="translate(0.000000,1280.000000) scale(0.100000,-0.100000)"
fill="#000000" stroke="none">
<path d="M4103 12486 c-557 -171 -1014 -314 -1017 -317 -3 -3 124 -20 282 -38
250 -28 336 -41 279 -41 -9 0 -17 -10 -19 -22 -2 -14 -9 -22 -18 -20 -8 2 -84
21 -168 43 -83 21 -184 42 -223 45 l-72 7 8 -58 c36 -295 179 -487 418 -561
l57 -18 0 -367 0 -367 -75 -153 c-45 -94 -95 -217 -126 -314 -59 -184 -61
-188 -94 -234 -30 -41 -43 -86 -55 -194 -15 -124 -13 -227 4 -227 10 0 14 -40
19 -187 13 -395 94 -718 267 -1063 l60 -120 0 -185 c0 -102 -2 -185 -4 -185
-2 0 -35 15 -72 32 -61 29 -79 33 -155 33 -79 0 -91 -3 -163 -39 -285 -141
-497 -595 -582 -1251 -21 -163 -29 -518 -15 -650 50 -457 221 -974 518 -1569
107 -216 231 -434 256 -451 47 -33 123 -9 150 47 29 61 37 121 37 294 0 198
11 253 62 301 32 30 77 58 83 51 1 -2 38 -50 81 -108 96 -128 324 -360 459
-466 55 -44 149 -110 208 -149 108 -70 108 -70 75 -76 -102 -19 -118 -43 -118
-171 0 -93 -1 -98 -22 -102 -13 -3 -522 -32 -1133 -66 -1828 -101 -1726 -94
-1748 -122 -31 -37 -83 -147 -113 -238 -27 -80 -28 -94 -28 -260 0 -162 2
-182 27 -263 15 -48 43 -118 61 -156 l35 -68 151 -5 c82 -3 152 -7 155 -9 2
-3 -9 -39 -25 -80 -68 -177 -78 -385 -27 -559 14 -47 24 -86 23 -88 -2 -1
-334 -27 -737 -57 -404 -30 -768 -58 -811 -61 l-76 -7 -45 -96 c-172 -369
-182 -803 -26 -1178 17 -40 35 -75 39 -78 8 -5 420 -18 2580 -80 1611 -46
2620 -75 3300 -95 371 -11 938 -26 1260 -35 322 -8 626 -19 675 -25 79 -8 142
-5 500 31 737 72 3368 340 3372 343 1 1 -4 38 -12 81 -22 122 -19 391 5 559
21 142 70 367 115 526 30 108 30 109 3 108 -13 -1 -66 -1 -119 0 l-97 2 -11
63 c-14 81 -14 247 0 340 13 89 51 245 86 354 30 90 32 93 120 93 82 0 82 0
65 78 -10 47 -12 112 -9 222 4 171 24 277 96 515 22 71 38 131 37 133 -3 3
-435 16 -2221 67 -484 14 -1186 34 -1560 45 -373 11 -707 20 -741 20 l-61 0 5
99 c6 137 -1 167 -45 194 -33 19 -34 22 -18 31 73 43 256 171 335 234 168 134
369 348 505 537 20 27 21 27 50 12 41 -21 71 -54 92 -102 14 -33 17 -73 18
-230 2 -147 6 -203 19 -249 29 -98 84 -135 160 -107 70 27 430 761 579 1181
178 500 236 862 207 1285 -49 739 -281 1306 -598 1463 -68 33 -83 37 -156 37
-90 0 -152 -18 -224 -66 -24 -16 -46 -29 -50 -28 -4 0 -30 39 -59 87 -46 79
-50 89 -37 107 214 308 366 677 428 1045 23 133 39 376 32 478 l-6 92 25 0
c23 0 25 4 25 43 0 74 -20 217 -35 253 -8 19 -26 45 -40 58 -19 17 -33 50 -51
116 -119 446 -348 836 -687 1173 l-129 127 39 0 c71 0 295 30 376 50 188 47
312 140 386 292 41 83 75 194 87 289 l7 49 -42 0 c-62 0 -204 -33 -521 -122
-576 -161 -649 -181 -872 -238 l-228 -58 0 123 0 124 108 33 c59 19 385 119
724 223 340 105 618 192 618 196 0 3 -91 15 -202 27 -112 11 -594 64 -1073
116 -478 53 -1159 127 -1513 166 -353 38 -646 70 -650 69 -4 0 -462 -141
-1019 -313z m220 -462 l437 -49 0 -118 0 -119 -34 6 c-49 9 -491 127 -711 189
l-190 54 -3 48 -3 48 33 -5 c18 -3 230 -28 471 -54z m-145 -583 c2 -1 -37 -39
-86 -86 -76 -72 -164 -168 -251 -275 l-20 -25 -1 210 0 210 178 -16 c97 -10
178 -17 180 -18z m3515 -8 c-7 -2 -21 -2 -30 0 -10 3 -4 5 12 5 17 0 24 -2 18
-5z m-185 -29 c-70 -13 -169 -37 -220 -53 -115 -36 -163 -46 -154 -33 14 23
387 110 471 110 17 0 -27 -10 -97 -24z"/>
</g>
</svg>
