<svg width="34" height="30" viewBox="0 0 34 30" fill="none" xmlns="http://www.w3.org/2000/svg">
<path d="M28.8333 0C31.4839 0 33.6389 1.67841 33.6389 3.74279L33.6389 26.1995C33.6389 28.2639 31.4839 29.9423 28.8333 29.9423L14.9873 29.9423C16.1286 28.9481 16.8194 27.6382 16.8194 26.1995L16.8194 3.74279C16.8194 2.30415 16.1286 0.994178 14.9873 0L28.8333 0ZM14.4167 3.74279L14.4167 26.1995C14.4167 28.2639 12.2617 29.9423 9.61111 29.9423H4.80555C2.15499 29.9423 -3.8147e-06 28.2639 -3.8147e-06 26.1995L-3.8147e-06 3.74279C-3.8147e-06 1.67841 2.15499 0 4.80555 0L9.61111 0C12.2617 0 14.4167 1.67841 14.4167 3.74279ZM4.80555 18.7139C4.80555 19.2103 5.0587 19.6863 5.50931 20.0372C5.95992 20.3882 6.57107 20.5853 7.20833 20.5853C7.84558 20.5853 8.45674 20.3882 8.90735 20.0372C9.35796 19.6863 9.61111 19.2103 9.61111 18.7139C9.61111 18.2176 9.35796 17.7416 8.90735 17.3907C8.45674 17.0397 7.84558 16.8425 7.20833 16.8425C6.57107 16.8425 5.95992 17.0397 5.50931 17.3907C5.0587 17.7416 4.80555 18.2176 4.80555 18.7139ZM7.20833 26.1995C7.84558 26.1995 8.45674 26.0024 8.90735 25.6514C9.35796 25.3004 9.61111 24.8244 9.61111 24.3281C9.61111 23.8318 9.35796 23.3558 8.90735 23.0048C8.45674 22.6539 7.84558 22.4567 7.20833 22.4567C6.57107 22.4567 5.95992 22.6539 5.50931 23.0048C5.0587 23.3558 4.80555 23.8318 4.80555 24.3281C4.80555 24.8244 5.0587 25.3004 5.50931 25.6514C5.95992 26.0024 6.57107 26.1995 7.20833 26.1995Z" fill="black"/>
</svg>
